<svg width="100%" height="100%" viewBox="0 0 967 293" version="1.1" xmlns="http://www.w3.org/2000/svg" xmlnsXLink="http://www.w3.org/1999/xlink" xmlSpace="preserve" xmlnsSerif="http://www.serif.com/" style="fill-rule:evenodd;clip-rule:evenodd;stroke-linejoin:round;stroke-miterlimit:2;">
    <g transform="matrix(1,0,0,1,-471,-649)">
        <g>
            <g>
                <g transform="matrix(0.548875,0,0,0.548875,152.706,504.851)">
                    <g transform="matrix(0.992321,-0.572917,6.245e-17,1.29102,51.9615,-134.833)">
                        <rect x="1008" y="893.738" width="144" height="124.708" style="fill:rgb(171,67,67);"/>
                    </g>
                    <g transform="matrix(0.992321,-0.572917,1.10417,0.637491,89.2006,-142)">
                        <rect x="-24" y="769.031" width="144" height="124.708" style="fill:rgb(204,144,144);"/>
                    </g>
                    <g transform="matrix(0.804166,-0.464286,-4.7275e-16,2.3094,226.528,-1030.79)">
                        <rect x="890" y="779.423" width="140" height="8.66" style="fill:rgb(171,67,67);"/>
                    </g>
                    <g transform="matrix(0.956236,0.552083,-6.20646e-17,1.29102,88.3346,-141.833)">
                        <rect x="864" y="20.785" width="144" height="124.708" style="fill:rgb(190,113,113);"/>
                    </g>
                    <g transform="matrix(0.866025,0.5,-6.07323e-17,1.26331,164.545,-82.9608)">
                        <rect x="1028" y="-110.851" width="122" height="15.588" style="fill:rgb(190,113,113);"/>
                    </g>
                </g>
                <g transform="matrix(0.548875,0,0,0.548875,152.706,504.851)">
                    <g transform="matrix(0.992321,-0.572917,6.245e-17,1.29102,-112.583,-39.8333)">
                        <rect x="1008" y="893.738" width="144" height="124.708" style="fill:rgb(61,84,157);"/>
                    </g>
                    <g transform="matrix(0.992321,-0.572917,1.10417,0.637491,-75.3442,-47)">
                        <rect x="-24" y="769.031" width="144" height="124.708" style="fill:rgb(141,158,211);"/>
                    </g>
                    <g transform="matrix(0.804166,-0.464286,-4.7275e-16,2.3094,61.9827,-935.786)">
                        <rect x="890" y="779.423" width="140" height="8.66" style="fill:rgb(61,84,157);"/>
                    </g>
                    <g transform="matrix(0.956236,0.552083,-6.20646e-17,1.29102,-76.2102,-46.8333)">
                        <rect x="864" y="20.785" width="144" height="124.708" style="fill:rgb(88,113,191);"/>
                    </g>
                    <g transform="matrix(0.866025,0.5,-6.07323e-17,1.26331,-5.78775e-16,12.0392)">
                        <rect x="1028" y="-110.851" width="122" height="15.588" style="fill:rgb(88,113,191);"/>
                    </g>
                </g>
                <g transform="matrix(0.548875,0,0,0.548875,59.5397,558.641)">
                    <g transform="matrix(0.992321,-0.572917,6.245e-17,1.29102,-112.583,-39.8333)">
                        <rect x="1008" y="893.738" width="144" height="124.708" style="fill:rgb(66,139,59);"/>
                    </g>
                    <g transform="matrix(0.992321,-0.572917,1.10417,0.637491,-75.3442,-47)">
                        <rect x="-24" y="769.031" width="144" height="124.708" style="fill:rgb(108,195,101);"/>
                    </g>
                    <g transform="matrix(0.804166,-0.464286,-4.7275e-16,2.3094,61.9827,-935.786)">
                        <rect x="890" y="779.423" width="140" height="8.66" style="fill:rgb(66,139,59);"/>
                    </g>
                    <g transform="matrix(0.956236,0.552083,-6.20646e-17,1.29102,-76.2102,-46.8333)">
                        <rect x="864" y="20.785" width="144" height="124.708" style="fill:rgb(66,147,59);"/>
                    </g>
                    <g transform="matrix(0.866025,0.5,-6.07323e-17,1.26331,-5.78775e-16,12.0392)">
                        <rect x="1028" y="-110.851" width="122" height="15.588" style="fill:rgb(66,147,59);"/>
                    </g>
                </g>
            </g>
            <g transform="matrix(2.13181,0,0,2.13181,-1314.8,-705.474)">
                <text x="1010.17px" y="680.834px" style="font-family:'MyriadPro-Bold', 'Myriad Pro', sans-serif;font-weight:700;font-size:64px;">T<tspan x="1041.78px 1065.4px " y="680.834px 680.834px ">ra</tspan>sh</text>
                <text x="1010.17px" y="732.902px" style="font-family:'MyriadPro-Bold', 'Myriad Pro', sans-serif;font-weight:700;font-size:64px;">S<tspan x="1045.17px " y="732.902px ">e</tspan>par<tspan x="1174.65px 1207.93px 1231.1px " y="732.902px 732.902px 732.902px ">ato</tspan>r</text>
            </g>
        </g>
    </g>
</svg>
